<svg width="45" height="45" viewBox="0 0 45 45" fill="none" xmlns="http://www.w3.org/2000/svg">
<rect width="45" height="45" fill="#1E1E1E"/>
<g id="Admin - Products">
<rect width="1728" height="1094" transform="translate(-1260 -249)" fill="#F5F5F5"/>
<g id="Frame 48095690" filter="url(#filter0_d_3_716)">
<rect x="-236" y="-26" width="310" height="97" rx="10" fill="white"/>
<g id="carbon:categories">
<path id="Vector" d="M9.50625 8.43753L10.1391 9.6891L10.9125 11.25H16.875V18.2813H5.625V8.43753H9.50625ZM10.3781 5.62503H4.21875C3.84579 5.62503 3.4881 5.77319 3.22438 6.03692C2.96066 6.30064 2.8125 6.65832 2.8125 7.03128V19.6875C2.8125 20.0605 2.96066 20.4182 3.22438 20.6819C3.4881 20.9456 3.84579 21.0938 4.21875 21.0938H18.2812C18.6542 21.0938 19.0119 20.9456 19.2756 20.6819C19.5393 20.4182 19.6875 20.0605 19.6875 19.6875V9.84378C19.6875 9.47082 19.5393 9.11314 19.2756 8.84942C19.0119 8.58569 18.6542 8.43753 18.2812 8.43753H12.6562L11.6437 6.39847C11.5258 6.16442 11.3448 5.96799 11.1212 5.83132C10.8976 5.69466 10.6402 5.62321 10.3781 5.62503ZM32.0063 8.43753L32.6391 9.6891L33.4125 11.25H39.375V18.2813H28.125V8.43753H32.0063ZM32.8781 5.62503H26.7188C26.3458 5.62503 25.9881 5.77319 25.7244 6.03692C25.4607 6.30064 25.3125 6.65832 25.3125 7.03128V19.6875C25.3125 20.0605 25.4607 20.4182 25.7244 20.6819C25.9881 20.9456 26.3458 21.0938 26.7188 21.0938H40.7812C41.1542 21.0938 41.5119 20.9456 41.7756 20.6819C42.0393 20.4182 42.1875 20.0605 42.1875 19.6875V9.84378C42.1875 9.47082 42.0393 9.11314 41.7756 8.84942C41.5119 8.58569 41.1542 8.43753 40.7812 8.43753H35.1562L34.1438 6.39847C34.0258 6.16442 33.8448 5.96799 33.6212 5.83132C33.3976 5.69466 33.1402 5.62321 32.8781 5.62503ZM9.50625 26.7188L10.1391 27.9703L10.9125 29.5313H16.875V36.5625H5.625V26.7188H9.50625ZM10.3781 23.9063H4.21875C3.84579 23.9063 3.4881 24.0544 3.22438 24.3182C2.96066 24.5819 2.8125 24.9396 2.8125 25.3125V37.9688C2.8125 38.3417 2.96066 38.6994 3.22438 38.9632C3.4881 39.2269 3.84579 39.375 4.21875 39.375H18.2812C18.6542 39.375 19.0119 39.2269 19.2756 38.9632C19.5393 38.6994 19.6875 38.3417 19.6875 37.9688V28.125C19.6875 27.7521 19.5393 27.3944 19.2756 27.1307C19.0119 26.8669 18.6542 26.7188 18.2812 26.7188H12.6562L11.6437 24.6797C11.5258 24.4457 11.3448 24.2492 11.1212 24.1126C10.8976 23.9759 10.6402 23.9045 10.3781 23.9063ZM32.0063 26.7188L32.6391 27.9703L33.4125 29.5313H39.375V36.5625H28.125V26.7188H32.0063ZM32.8781 23.9063H26.7188C26.3458 23.9063 25.9881 24.0544 25.7244 24.3182C25.4607 24.5819 25.3125 24.9396 25.3125 25.3125V37.9688C25.3125 38.3417 25.4607 38.6994 25.7244 38.9632C25.9881 39.2269 26.3458 39.375 26.7188 39.375H40.7812C41.1542 39.375 41.5119 39.2269 41.7756 38.9632C42.0393 38.6994 42.1875 38.3417 42.1875 37.9688V28.125C42.1875 27.7521 42.0393 27.3944 41.7756 27.1307C41.5119 26.8669 41.1542 26.7188 40.7812 26.7188H35.1562L34.1438 24.6797C34.0258 24.4457 33.8448 24.2492 33.6212 24.1126C33.3976 23.9759 33.1402 23.9045 32.8781 23.9063Z" fill="#1B7CFC"/>
</g>
<rect x="-235.5" y="-25.5" width="309" height="96" rx="9.5" stroke="#E51B48"/>
</g>
</g>
<defs>
<filter id="filter0_d_3_716" x="-273" y="-63" width="384" height="171" filterUnits="userSpaceOnUse" color-interpolation-filters="sRGB">
<feFlood flood-opacity="0" result="BackgroundImageFix"/>
<feColorMatrix in="SourceAlpha" type="matrix" values="0 0 0 0 0 0 0 0 0 0 0 0 0 0 0 0 0 0 127 0" result="hardAlpha"/>
<feMorphology radius="16" operator="dilate" in="SourceAlpha" result="effect1_dropShadow_3_716"/>
<feOffset/>
<feGaussianBlur stdDeviation="10.5"/>
<feComposite in2="hardAlpha" operator="out"/>
<feColorMatrix type="matrix" values="0 0 0 0 0 0 0 0 0 0 0 0 0 0 0 0 0 0 0.02 0"/>
<feBlend mode="normal" in2="BackgroundImageFix" result="effect1_dropShadow_3_716"/>
<feBlend mode="normal" in="SourceGraphic" in2="effect1_dropShadow_3_716" result="shape"/>
</filter>
</defs>
</svg>
