<svg width="19" height="19" viewBox="0 0 19 19" fill="none" xmlns="http://www.w3.org/2000/svg">
<path d="M15.6207 7.30143C18.335 11.1286 16.2586 15.5121 15.2543 17.2221C15.107 17.4613 14.9092 17.6654 14.6748 17.8201C14.4404 17.9749 14.175 18.0765 13.8971 18.1179C11.9293 18.4571 7.03001 18.8371 4.39715 15.01C1.80501 11.4 1.91358 5.04857 2.14429 2.02214C2.15339 1.79666 2.21591 1.57657 2.3267 1.37997C2.43749 1.18338 2.59338 1.01591 2.78155 0.891347C2.96972 0.766784 3.18478 0.688691 3.40904 0.663496C3.63329 0.638302 3.86032 0.666725 4.07143 0.746428C6.98929 1.58786 13.0693 3.69143 15.6207 7.30143Z" stroke="#279F51" stroke-linecap="round" stroke-linejoin="round"/>
<path d="M6.47357 6.03928C9.58214 9.70257 12.3104 13.6722 14.6164 17.8871" stroke="#279F51" stroke-linecap="round" stroke-linejoin="round"/>
</svg>
