<svg width="33" height="38" viewBox="0 0 33 38" fill="none" xmlns="http://www.w3.org/2000/svg">
<g id="ant-design:logout-outlined">
<path id="Vector" d="M27.9726 23.5898H25.7071C25.5524 23.5898 25.4074 23.6575 25.3107 23.7767C25.0851 24.0507 24.8434 24.3149 24.5889 24.5663C23.5476 25.6086 22.3142 26.4392 20.9569 27.0123C19.5507 27.6062 18.0393 27.9109 16.5129 27.9082C14.9692 27.9082 13.4739 27.6053 12.0688 27.0123C10.7115 26.4392 9.47816 25.6086 8.4369 24.5663C7.39377 23.5275 6.56201 22.2963 5.98768 20.9408C5.39149 19.5357 5.09178 18.0436 5.09178 16.5C5.09178 14.9563 5.39471 13.4642 5.98768 12.0592C6.56131 10.7024 7.38631 9.48104 8.4369 8.43368C9.48748 7.38632 10.7089 6.56132 12.0688 5.98768C13.4739 5.39471 14.9692 5.09178 16.5129 5.09178C18.0565 5.09178 19.5518 5.39149 20.9569 5.98768C22.3169 6.56132 23.5383 7.38632 24.5889 8.43368C24.8434 8.68827 25.0819 8.95253 25.3107 9.22323C25.4074 9.34247 25.5556 9.41014 25.7071 9.41014H27.9726C28.1757 9.41014 28.3014 9.18456 28.1886 9.01376C25.7168 5.17235 21.392 2.62968 16.4774 2.64257C8.75594 2.6619 2.56522 8.92997 2.64256 16.6418C2.71991 24.2311 8.90096 30.3574 16.5129 30.3574C21.4145 30.3574 25.72 27.818 28.1886 23.9862C28.2981 23.8154 28.1757 23.5898 27.9726 23.5898ZM30.8376 16.297L26.2646 12.6876C26.0938 12.5522 25.8457 12.6747 25.8457 12.8906V15.3398H15.7265C15.5848 15.3398 15.4687 15.4558 15.4687 15.5976V17.4023C15.4687 17.5441 15.5848 17.6601 15.7265 17.6601H25.8457V20.1094C25.8457 20.3253 26.0971 20.4477 26.2646 20.3124L30.8376 16.703C30.8684 16.6789 30.8933 16.6481 30.9105 16.6129C30.9276 16.5777 30.9365 16.5391 30.9365 16.5C30.9365 16.4609 30.9276 16.4222 30.9105 16.3871C30.8933 16.3519 30.8684 16.3211 30.8376 16.297Z" fill="#D65D5B"/>
</g>
</svg>
