<svg width="19" height="19" viewBox="0 0 19 19" fill="none" xmlns="http://www.w3.org/2000/svg">
<path fill-rule="evenodd" clip-rule="evenodd" d="M16.6202 6.53124H2.37975C2.40112 4.44441 2.53095 3.28224 3.30283 2.51116C4.22987 1.58333 5.72295 1.58333 8.70833 1.58333H10.2917C13.277 1.58333 14.7701 1.58333 15.6972 2.51116C16.469 3.28224 16.5989 4.44441 16.6202 6.53124ZM4.55208 4.35416C4.55208 4.19669 4.61463 4.04567 4.72598 3.93432C4.83733 3.82297 4.98836 3.76041 5.14583 3.76041H7.52083C7.6783 3.76041 7.82932 3.82297 7.94067 3.93432C8.05202 4.04567 8.11458 4.19669 8.11458 4.35416C8.11458 4.51163 8.05202 4.66266 7.94067 4.77401C7.82932 4.88536 7.6783 4.94791 7.52083 4.94791H5.14583C4.98836 4.94791 4.83733 4.88536 4.72598 4.77401C4.61463 4.66266 4.55208 4.51163 4.55208 4.35416ZM11.4792 5.14583C11.6891 5.14583 11.8905 5.06242 12.039 4.91395C12.1874 4.76549 12.2708 4.56412 12.2708 4.35416C12.2708 4.1442 12.1874 3.94284 12.039 3.79437C11.8905 3.6459 11.6891 3.56249 11.4792 3.56249C11.2692 3.56249 11.0678 3.6459 10.9194 3.79437C10.7709 3.94284 10.6875 4.1442 10.6875 4.35416C10.6875 4.56412 10.7709 4.76549 10.9194 4.91395C11.0678 5.06242 11.2692 5.14583 11.4792 5.14583ZM14.6458 4.35416C14.6458 4.56412 14.5624 4.76549 14.414 4.91395C14.2655 5.06242 14.0641 5.14583 13.8542 5.14583C13.6442 5.14583 13.4428 5.06242 13.2944 4.91395C13.1459 4.76549 13.0625 4.56412 13.0625 4.35416C13.0625 4.1442 13.1459 3.94284 13.2944 3.79437C13.4428 3.6459 13.6442 3.56249 13.8542 3.56249C14.0641 3.56249 14.2655 3.6459 14.414 3.79437C14.5624 3.94284 14.6458 4.1442 14.6458 4.35416Z" fill="#DD7876"/>
<path d="M7.71875 11.875C7.71875 11.4026 7.90642 10.9495 8.24047 10.6155C8.57452 10.2814 9.02758 10.0938 9.5 10.0938C9.97242 10.0938 10.4255 10.2814 10.7595 10.6155C11.0936 10.9495 11.2812 11.4026 11.2812 11.875C11.2812 12.3474 11.0936 12.8005 10.7595 13.1345C10.4255 13.4686 9.97242 13.6562 9.5 13.6562C9.02758 13.6562 8.57452 13.4686 8.24047 13.1345C7.90642 12.8005 7.71875 12.3474 7.71875 11.875Z" fill="#DD7876"/>
<path fill-rule="evenodd" clip-rule="evenodd" d="M2.375 7.71875H16.625V10.2917C16.625 13.277 16.625 14.7701 15.6972 15.6972C15.4543 15.9386 15.1636 16.1266 14.8438 16.249V17.4167C14.8438 17.5741 14.7812 17.7252 14.6698 17.8365C14.5585 17.9479 14.4075 18.0104 14.25 18.0104C14.0925 18.0104 13.9415 17.9479 13.8302 17.8365C13.7188 17.7252 13.6562 17.5741 13.6562 17.4167V16.5229C12.8092 16.625 11.7214 16.625 10.2917 16.625H8.70833C7.27858 16.625 6.19083 16.625 5.34375 16.5229V17.4167C5.34375 17.5741 5.28119 17.7252 5.16984 17.8365C5.0585 17.9479 4.90747 18.0104 4.75 18.0104C4.59253 18.0104 4.4415 17.9479 4.33016 17.8365C4.21881 17.7252 4.15625 17.5741 4.15625 17.4167V16.249C3.83639 16.1266 3.54569 15.9386 3.30283 15.6972C2.375 14.7701 2.375 13.277 2.375 10.2917V7.71875ZM9.5 8.90625C8.71264 8.90625 7.95753 9.21903 7.40078 9.77578C6.84403 10.3325 6.53125 11.0876 6.53125 11.875C6.53125 12.6624 6.84403 13.4175 7.40078 13.9742C7.95753 14.531 8.71264 14.8438 9.5 14.8438C10.2874 14.8438 11.0425 14.531 11.5992 13.9742C12.156 13.4175 12.4688 12.6624 12.4688 11.875C12.4688 11.0876 12.156 10.3325 11.5992 9.77578C11.0425 9.21903 10.2874 8.90625 9.5 8.90625Z" fill="#DD7876"/>
</svg>
