<svg width="19" height="19" viewBox="0 0 19 19" fill="none" xmlns="http://www.w3.org/2000/svg">
<g clip-path="url(#clip0_210_1820)">
<path d="M13.1538 0.137381C10.0006 0.137381 7.44435 1.54703 7.44435 3.28846C7.44435 5.02988 10.0013 6.44027 13.1538 6.44027C16.3071 6.44027 18.8633 5.02988 18.8633 3.28846C18.8633 1.54703 16.3064 0.137381 13.1538 0.137381ZM18.8633 4.22457C18.8619 5.966 16.3071 7.37638 13.1538 7.37638C10.0093 7.37638 7.45897 5.98134 7.44435 4.24796V5.48077C7.44435 6.22469 7.92081 6.90577 8.70127 7.44507C9.4905 7.65992 10.1935 7.95807 10.7788 8.33515C11.5045 8.5193 12.3025 8.63184 13.1538 8.63184C16.3071 8.63184 18.8633 7.22219 18.8633 5.48077V4.22457ZM18.8633 6.41688C18.8633 8.1583 16.3071 9.56869 13.1538 9.56869C12.7702 9.56869 12.3975 9.54019 12.035 9.5C12.3211 9.8852 12.5162 10.3302 12.6058 10.8015C12.7877 10.8117 12.9675 10.8242 13.1538 10.8242C16.3071 10.8242 18.8633 9.4145 18.8633 7.67307V6.41688ZM5.84616 8.17511C2.69289 8.17511 0.136658 9.5855 0.136658 11.3269C0.136658 13.0683 2.69362 14.4787 5.84616 14.4787C8.99943 14.4787 11.5557 13.0683 11.5557 11.3269C11.5557 9.5855 8.9987 8.17511 5.84616 8.17511ZM18.8633 8.60919C18.8619 10.3506 16.3071 11.761 13.1538 11.761C12.9704 11.761 12.7848 11.7478 12.6058 11.7376C12.5977 11.7924 12.5933 11.8655 12.5831 11.9203C12.6197 12.0307 12.6511 12.1395 12.6511 12.2638V12.9945C12.817 13.0026 12.9836 13.0165 13.1538 13.0165C16.3071 13.0165 18.8633 11.6068 18.8633 9.86538V8.60919ZM18.8633 10.8015C18.8619 12.5429 16.3071 13.9533 13.1538 13.9533C12.9704 13.9533 12.7848 13.9402 12.6058 13.9299C12.5977 13.9847 12.5933 14.0578 12.5831 14.1126C12.6197 14.2222 12.6511 14.3318 12.6511 14.4561V15.1868C12.817 15.1949 12.9836 15.2088 13.1538 15.2088C16.3071 15.2088 18.8633 13.7991 18.8633 12.0577V10.8015ZM11.5557 12.263C11.5542 14.0045 8.99943 15.4148 5.84616 15.4148C2.70166 15.4148 0.151273 14.0198 0.136658 12.2857V13.5192C0.136658 15.2606 2.69216 16.671 5.84616 16.671C9.00016 16.671 11.5557 15.2606 11.5557 13.5192V12.263ZM11.5557 14.4553C11.5542 16.1968 8.99943 17.6071 5.84616 17.6071C2.70166 17.6071 0.151273 16.2121 0.136658 14.478V15.7115C0.136658 17.453 2.69216 18.8633 5.84616 18.8633C9.00016 18.8633 11.5557 17.453 11.5557 15.7115V14.4553Z" fill="#FF8901"/>
</g>
<defs>
<clipPath id="clip0_210_1820">
<rect width="19" height="19" fill="white"/>
</clipPath>
</defs>
</svg>
