<svg width="19" height="19" viewBox="0 0 19 19" fill="none" xmlns="http://www.w3.org/2000/svg">
<path d="M17.4159 6.33333C17.4159 6.18965 17.3768 6.04869 17.3027 5.92562L15.158 2.35124C15.0168 2.11758 14.8177 1.9242 14.5801 1.78971C14.3424 1.65522 14.0742 1.58415 13.8011 1.58333H5.19728C4.6447 1.58333 4.12458 1.87783 3.84037 2.35204L1.69574 5.92562C1.6216 6.04869 1.58246 6.18965 1.58253 6.33333C1.58253 7.12895 1.88812 7.84858 2.3742 8.40591V15.8333C2.3742 16.0433 2.45761 16.2447 2.60608 16.3931C2.75454 16.5416 2.95591 16.625 3.16587 16.625H9.4992C9.70916 16.625 9.91053 16.5416 10.059 16.3931C10.2075 16.2447 10.2909 16.0433 10.2909 15.8333V11.875H13.4575V15.8333C13.4575 16.0433 13.5409 16.2447 13.6894 16.3931C13.8379 16.5416 14.0392 16.625 14.2492 16.625H15.8325C16.0425 16.625 16.2439 16.5416 16.3923 16.3931C16.5408 16.2447 16.6242 16.0433 16.6242 15.8333V8.40591C17.1103 7.84858 17.4159 7.12895 17.4159 6.33333ZM15.8199 6.53204C15.7712 6.91434 15.5848 7.2658 15.2957 7.52065C15.0066 7.7755 14.6346 7.91629 14.2492 7.91666C13.376 7.91666 12.6659 7.20654 12.6659 6.33333C12.6659 6.2795 12.6461 6.232 12.635 6.18133L12.6508 6.17816L12.0484 3.16666H13.8011L15.8199 6.53204ZM7.92141 6.38479L8.56424 3.16666H10.4334L11.077 6.38479C11.0493 7.23424 10.3542 7.91666 9.4992 7.91666C8.6442 7.91666 7.94912 7.23424 7.92141 6.38479ZM5.19728 3.16666H6.95004L6.34837 6.17816L6.3642 6.18133C6.35233 6.232 6.33253 6.2795 6.33253 6.33333C6.33253 7.20654 5.62241 7.91666 4.7492 7.91666C4.36381 7.91629 3.99176 7.7755 3.70267 7.52065C3.41357 7.2658 3.22724 6.91434 3.17853 6.53204L5.19728 3.16666ZM7.91587 12.6667H4.7492V10.2917H7.91587V12.6667Z" fill="#4EC9E4"/>
</svg>
