<svg width="19" height="19" viewBox="0 0 19 19" fill="none" xmlns="http://www.w3.org/2000/svg">
<path d="M9.5 3.44692C9.92547 2.96456 10.4877 2.62319 11.112 2.46825C11.7363 2.31331 12.3929 2.35214 12.9945 2.57957C13.5962 2.807 14.1143 3.21224 14.48 3.74138C14.8456 4.27053 15.0415 4.89847 15.0415 5.54167C15.0415 6.18486 14.8456 6.81281 14.48 7.34195C14.1143 7.87109 13.5962 8.27634 12.9945 8.50377C12.3929 8.7312 11.7363 8.77002 11.112 8.61508C10.4877 8.46014 9.92547 8.11878 9.5 7.63642M11.875 16.625H2.375V15.8333C2.375 14.5736 2.87545 13.3654 3.76624 12.4746C4.65704 11.5838 5.86522 11.0833 7.125 11.0833C8.38478 11.0833 9.59296 11.5838 10.4838 12.4746C11.3746 13.3654 11.875 14.5736 11.875 15.8333V16.625ZM11.875 16.625H16.625V15.8333C16.6251 14.9995 16.4057 14.1803 15.9889 13.4581C15.572 12.7359 14.9724 12.1362 14.2503 11.7192C13.5282 11.3022 12.709 11.0827 11.8752 11.0827C11.0413 11.0826 10.2221 11.3021 9.5 11.719M10.2917 5.54167C10.2917 6.38152 9.95804 7.18697 9.36417 7.78084C8.77031 8.3747 7.96485 8.70833 7.125 8.70833C6.28515 8.70833 5.47969 8.3747 4.88583 7.78084C4.29196 7.18697 3.95833 6.38152 3.95833 5.54167C3.95833 4.70182 4.29196 3.89636 4.88583 3.3025C5.47969 2.70863 6.28515 2.375 7.125 2.375C7.96485 2.375 8.77031 2.70863 9.36417 3.3025C9.95804 3.89636 10.2917 4.70182 10.2917 5.54167Z" stroke="#0F60FF" stroke-width="2" stroke-linecap="round" stroke-linejoin="round"/>
</svg>
